<?xml version="1.0" encoding="UTF-8"?>
<svg id="Layer_2" xmlns="http://www.w3.org/2000/svg" viewBox="0 0 41.29 52.06">
  <defs>
    <style>
      .cls-1 {
        fill: #010101;
      }
    </style>
  </defs>
  <g id="Home">
    <g id="_x32_4_-_tree_x2C__Apple_x2C__apple_tree_x2C__nature_x2C__spring">
      <g>
        <path class="cls-1" d="M20.17,52.06c-.51,0-.85-.34-.85-.85v-31.03c0-.51.34-.85.85-.85s.85.34.85.85v31.03c0,.43-.43.85-.85.85Z"/>
        <path class="cls-1" d="M20.17,33.85c-.51,0-.85-.34-.85-.85s.34-.85.85-.85c2.48,0,4.53-2.05,4.53-4.53v-5.39c0-.51.34-.85.85-.85s.85.34.85.85v5.39c-.09,3.5-2.82,6.24-6.24,6.24Z"/>
        <path class="cls-1" d="M25.47,25.3c-.51,0-.85-.34-.85-.85s.34-.85.85-.85c1.88,0,3.42-1.54,3.42-3.42,0-.51.34-.85.85-.85s.85.34.85.85c0,2.82-2.31,5.13-5.13,5.13Z"/>
        <path class="cls-1" d="M20.17,30.69c-4.02,0-7.27-3.25-7.27-7.27v-3.25c0-.51.34-.85.85-.85s.85.34.85.85v3.25c0,3.08,2.48,5.56,5.56,5.56.51,0,.85.34.85.85s-.43.85-.85.85Z"/>
        <path class="cls-1" d="M13.76,24.28c-2.82,0-5.13-2.31-5.13-5.13v-2.14c0-.51.34-.85.85-.85s.85.34.85.85v2.14c0,1.88,1.54,3.42,3.42,3.42.51,0,.85.34.85.85s-.43.85-.85.85Z"/>
        <path class="cls-1" d="M38.29,37.1c-.26,0-.43-.09-.6-.26-.34-.34-.34-.85,0-1.2l2.14-2.14c.34-.34.85-.34,1.2,0,.34.34.34.85,0,1.2l-2.14,2.14c-.17.17-.34.26-.6.26Z"/>
        <path class="cls-1" d="M29.75,46.67c-.26,0-.43-.09-.6-.26-.34-.34-.34-.85,0-1.2l2.14-2.14c.34-.34.85-.34,1.2,0,.34.34.34.85,0,1.2l-2.14,2.14c-.17.17-.34.26-.6.26Z"/>
        <path class="cls-1" d="M4.1,41.37c-.26,0-.43-.09-.6-.26-.34-.34-.34-.85,0-1.2l2.14-2.14c.34-.34.85-.34,1.2,0,.34.34.34.85,0,1.2l-2.14,2.14c-.17.17-.34.26-.6.26Z"/>
        <path class="cls-1" d="M4.1,49.92c-.26,0-.43-.09-.6-.26-.34-.34-.34-.85,0-1.2l2.14-2.14c.34-.34.85-.34,1.2,0,.34.34.34.85,0,1.2l-2.14,2.14c-.17.17-.34.26-.6.26Z"/>
        <path class="cls-1" d="M9.49,45.22c-.26,0-.43-.09-.6-.26l-1.71-1.71c-.34-.34-.34-.85,0-1.2.34-.34.85-.34,1.2,0l1.71,1.71c.34.34.34.85,0,1.2-.17.17-.43.26-.6.26Z"/>
        <path class="cls-1" d="M36.16,49.92c-.26,0-.43-.09-.6-.26l-1.71-1.71c-.34-.34-.34-.85,0-1.2.34-.34.85-.34,1.2,0l1.71,1.71c.34.34.34.85,0,1.2-.17.17-.34.26-.6.26Z"/>
        <path class="cls-1" d="M35.13,40.26c-.26,0-.43-.09-.6-.26l-1.71-1.71c-.34-.34-.34-.85,0-1.2.34-.34.85-.34,1.2,0l1.71,1.71c.34.34.34.85,0,1.2-.17.17-.43.26-.6.26Z"/>
        <path class="cls-1" d="M27.61,52.06H8.38c-.51,0-.85-.34-.85-.85s.34-.85.85-.85h19.23c.51,0,.85.34.85.85,0,.43-.34.85-.85.85Z"/>
        <path class="cls-1" d="M18.04,42.4c-1.62,0-3.25-.77-4.19-2.14h-.09c-2.82,0-5.13-2.31-5.13-5.13,0-.43.09-.94.17-1.37-1.88-.34-3.42-1.97-3.42-4.02v-.26c-2.99-.43-5.39-2.99-5.39-6.15,0-2.74,1.79-5.13,4.27-5.9.09-.43.17-.85.43-1.28-2.22-.94-3.68-3.16-3.68-5.64,0-3.42,2.82-6.24,6.24-6.24,1.54,0,2.99.51,4.1,1.54.77-.34,1.54-.43,2.31-.43,1.28,0,2.48.43,3.5,1.11.6-3.68,3.85-6.5,7.69-6.5,4.27,0,7.69,3.42,7.78,7.61.43-.09.85-.17,1.28-.17,3.42,0,6.24,2.82,6.24,6.24,0,.94-.17,1.8-.6,2.65,1.03.94,1.62,2.31,1.62,3.76,0,1.88-1.03,3.5-2.56,4.45.26.6.43,1.28.43,1.97,0,2.82-2.31,5.13-5.13,5.13-.94,0-1.88-.26-2.65-.77-.09.09-.17.09-.26.17.43.94.6,1.88.6,2.91,0,4.02-3.25,7.27-7.27,7.27-.94,0-1.88-.17-2.74-.51-.34.34-.68.68-1.11.94-.68.51-1.62.77-2.48.77ZM14.27,38.55c.34,0,.6.17.77.43.6,1.11,1.71,1.71,2.99,1.71.6,0,1.2-.17,1.71-.43.43-.26.77-.6,1.11-.94.26-.34.68-.43,1.11-.26.77.43,1.62.6,2.56.6,3.08,0,5.56-2.48,5.56-5.56,0-1.03-.26-2.05-.85-2.91-.17-.26-.17-.51-.09-.77.09-.26.34-.43.6-.51.43-.09.85-.34,1.2-.6.34-.26.77-.26,1.11,0,.6.51,1.37.77,2.14.77,1.88,0,3.42-1.54,3.42-3.42,0-.68-.17-1.37-.6-1.88-.17-.26-.17-.51-.09-.77.09-.26.26-.43.51-.51,1.37-.51,2.31-1.8,2.31-3.25,0-1.11-.6-2.22-1.54-2.82-.43-.26-.51-.77-.26-1.2.43-.68.68-1.54.68-2.39,0-2.48-2.05-4.53-4.53-4.53-.68,0-1.28.17-1.88.43-.26.17-.6.09-.85-.09-.26-.17-.34-.51-.34-.77.09-.26.09-.6.09-.85,0-3.33-2.74-6.07-6.07-6.07s-6.07,2.74-6.07,6.07v.51c0,.34-.17.77-.51.85-.34.17-.77,0-1.03-.26-.85-1.11-2.22-1.8-3.59-1.8-.77,0-1.45.17-2.14.51-.34.17-.77.09-1.03-.17-.85-.94-2.05-1.45-3.25-1.45-2.48,0-4.53,2.05-4.53,4.53,0,2.14,1.45,3.93,3.51,4.36.34.09.51.26.6.6.09.34,0,.6-.26.85-.43.43-.68,1.03-.68,1.71v.09c0,.43-.26.77-.68.85-2.05.43-3.59,2.31-3.59,4.36,0,2.48,2.05,4.53,4.53,4.53h.17c.26,0,.51.09.68.34.17.26.17.51.09.77-.09.26-.17.51-.17.77,0,1.28,1.03,2.39,2.39,2.39h.43c.34-.09.68.09.85.34.17.26.17.6,0,.94-.34.51-.51,1.11-.51,1.8,0,1.88,1.54,3.42,3.42,3.42h.43c.09-.34.17-.34.17-.34Z"/>
      </g>
    </g>
  </g>
</svg>