<?xml version="1.0" encoding="UTF-8"?>
<svg id="Layer_2" xmlns="http://www.w3.org/2000/svg" viewBox="0 0 41.3 49.13">
  <defs>
    <style>
      .cls-1 {
        stroke: #000;
        stroke-miterlimit: 10;
        stroke-width: .79px;
      }
    </style>
  </defs>
  <g id="Home">
    <g>
      <path class="cls-1" d="M20.65,40.91c-1.08,0-1.89-1.05-2.68-2.07-.58-.74-1.18-1.52-1.74-1.67-.6-.16-1.53.21-2.43.58-1.17.47-2.38.96-3.27.45-.91-.53-1.09-1.83-1.26-3.09-.13-.95-.27-1.93-.7-2.36-.43-.43-1.41-.57-2.36-.7-1.26-.17-2.56-.35-3.09-1.26-.52-.89-.03-2.1.45-3.27.36-.9.74-1.83.58-2.43-.15-.57-.92-1.17-1.67-1.74-1.02-.79-2.07-1.61-2.07-2.68s1.05-1.89,2.07-2.68c.74-.58,1.52-1.18,1.67-1.74.16-.6-.22-1.53-.58-2.43-.47-1.17-.96-2.38-.45-3.27.53-.91,1.83-1.09,3.09-1.26.95-.13,1.93-.27,2.36-.7s.57-1.41.7-2.36c.17-1.26.35-2.56,1.26-3.09.89-.52,2.1-.03,3.27.45.9.36,1.83.74,2.43.58.57-.15,1.17-.92,1.74-1.67.79-1.02,1.61-2.07,2.68-2.07s1.89,1.05,2.68,2.07c.58.74,1.18,1.51,1.74,1.67.6.16,1.53-.22,2.43-.58,1.17-.47,2.38-.96,3.27-.45.91.53,1.09,1.83,1.26,3.09.13.95.27,1.93.7,2.36s1.41.57,2.36.7c1.26.17,2.56.35,3.09,1.26.52.89.03,2.1-.45,3.27-.36.9-.74,1.83-.58,2.43.15.57.92,1.17,1.67,1.74,1.02.79,2.07,1.61,2.07,2.68s-1.05,1.89-2.07,2.68c-.74.58-1.52,1.18-1.67,1.74-.16.6.22,1.53.58,2.43.47,1.17.96,2.38.45,3.27-.53.91-1.83,1.09-3.09,1.26-.95.13-1.93.27-2.36.7-.43.43-.57,1.41-.7,2.36-.17,1.26-.35,2.56-1.26,3.09-.89.52-2.1.03-3.27-.45-.9-.36-1.83-.74-2.43-.58-.57.15-1.17.92-1.74,1.67-.79,1.02-1.61,2.07-2.68,2.07ZM15.91,36.34c.18,0,.35.02.52.06.82.22,1.47,1.06,2.16,1.95.67.87,1.37,1.77,2.06,1.77s1.39-.9,2.06-1.77c.69-.89,1.34-1.72,2.16-1.95.86-.23,1.92.2,2.93.61.99.4,2.02.82,2.58.49.57-.33.73-1.44.87-2.51.15-1.08.3-2.2.92-2.81.62-.62,1.73-.77,2.82-.92,1.07-.15,2.18-.3,2.51-.87.32-.56-.09-1.58-.49-2.58-.41-1.02-.84-2.07-.61-2.93.22-.82,1.06-1.47,1.95-2.16.87-.67,1.76-1.37,1.76-2.06s-.9-1.39-1.76-2.06c-.89-.69-1.73-1.34-1.95-2.16-.23-.86.2-1.91.61-2.93.4-.99.82-2.02.49-2.58-.33-.57-1.44-.73-2.51-.87-1.08-.15-2.2-.3-2.81-.92-.62-.62-.77-1.73-.92-2.82-.15-1.07-.3-2.18-.87-2.51-.56-.32-1.58.09-2.58.49-1.02.41-2.07.84-2.93.61-.82-.22-1.47-1.06-2.16-1.95-.67-.87-1.37-1.77-2.06-1.77s-1.39.9-2.06,1.76c-.69.89-1.34,1.73-2.16,1.95-.86.23-1.91-.2-2.93-.61-.99-.4-2.02-.82-2.58-.49-.57.33-.73,1.44-.87,2.51-.15,1.08-.3,2.2-.92,2.81s-1.73.77-2.82.92c-1.07.15-2.18.3-2.51.87-.32.56.09,1.58.49,2.58.41,1.02.84,2.07.61,2.93-.22.82-1.06,1.47-1.95,2.16-.87.67-1.76,1.37-1.76,2.06s.9,1.39,1.76,2.06c.89.69,1.73,1.34,1.95,2.16.23.86-.2,1.91-.61,2.93-.4.99-.82,2.02-.49,2.58.33.57,1.44.73,2.51.88,1.08.15,2.2.3,2.81.92.62.62.77,1.74.92,2.81.15,1.07.3,2.18.87,2.51.56.32,1.58-.09,2.58-.49.82-.33,1.67-.67,2.41-.67Z"/>
      <g>
        <path class="cls-1" d="M10.02,48.74s-.02,0-.03,0c-.16-.01-.3-.12-.35-.28l-1.54-5.07-4.96,1.84c-.15.05-.32.01-.43-.11-.11-.12-.13-.29-.06-.44l6.03-12.15c.1-.2.33-.27.53-.18.2.1.28.33.18.53l-5.59,11.26,4.42-1.64c.1-.04.21-.03.31.02.1.05.17.13.2.24l1.37,4.51,5.31-10.71c.1-.2.33-.27.53-.18.2.1.28.33.18.53l-5.76,11.6c-.07.14-.2.22-.35.22Z"/>
        <path class="cls-1" d="M20.65,40.91c-1.08,0-1.89-1.05-2.68-2.07-.58-.74-1.18-1.52-1.74-1.67-.6-.16-1.53.21-2.43.58-1.17.47-2.38.96-3.27.45-.91-.53-1.09-1.83-1.26-3.09-.13-.95-.27-1.93-.7-2.36-.43-.43-1.41-.57-2.36-.7-1.26-.17-2.56-.35-3.09-1.26-.52-.89-.03-2.1.45-3.27.36-.9.74-1.83.58-2.43-.15-.57-.92-1.17-1.67-1.74-1.02-.79-2.07-1.61-2.07-2.68s1.05-1.89,2.07-2.68c.74-.58,1.52-1.18,1.67-1.74.16-.6-.22-1.53-.58-2.43-.47-1.17-.96-2.38-.45-3.27.53-.91,1.83-1.09,3.09-1.26.95-.13,1.93-.27,2.36-.7s.57-1.41.7-2.36c.17-1.26.35-2.56,1.26-3.09.89-.52,2.1-.03,3.27.45.9.36,1.83.74,2.43.58.57-.15,1.17-.92,1.74-1.67.79-1.02,1.61-2.07,2.68-2.07s1.89,1.05,2.68,2.07c.58.74,1.18,1.51,1.74,1.67.6.16,1.53-.22,2.43-.58,1.17-.47,2.38-.96,3.27-.45.91.53,1.09,1.83,1.26,3.09.13.95.27,1.93.7,2.36s1.41.57,2.36.7c1.26.17,2.56.35,3.09,1.26.52.89.03,2.1-.45,3.27-.36.9-.74,1.83-.58,2.43.15.57.92,1.17,1.67,1.74,1.02.79,2.07,1.61,2.07,2.68s-1.05,1.89-2.07,2.68c-.74.58-1.52,1.18-1.67,1.74-.16.6.22,1.53.58,2.43.47,1.17.96,2.38.45,3.27-.53.91-1.83,1.09-3.09,1.26-.95.13-1.93.27-2.36.7-.43.43-.57,1.41-.7,2.36-.17,1.26-.35,2.56-1.26,3.09-.89.52-2.1.03-3.27-.45-.9-.36-1.83-.74-2.43-.58-.57.15-1.17.92-1.74,1.67-.79,1.02-1.61,2.07-2.68,2.07ZM15.91,36.34c.18,0,.35.02.52.06.82.22,1.47,1.06,2.16,1.95.67.87,1.37,1.77,2.06,1.77s1.39-.9,2.06-1.77c.69-.89,1.34-1.72,2.16-1.95.86-.23,1.92.2,2.93.61.99.4,2.02.82,2.58.49.57-.33.73-1.44.87-2.51.15-1.08.3-2.2.92-2.81.62-.62,1.73-.77,2.82-.92,1.07-.15,2.18-.3,2.51-.87.32-.56-.09-1.58-.49-2.58-.41-1.02-.84-2.07-.61-2.93.22-.82,1.06-1.47,1.95-2.16.87-.67,1.76-1.37,1.76-2.06s-.9-1.39-1.76-2.06c-.89-.69-1.73-1.34-1.95-2.16-.23-.86.2-1.91.61-2.93.4-.99.82-2.02.49-2.58-.33-.57-1.44-.73-2.51-.87-1.08-.15-2.2-.3-2.81-.92-.62-.62-.77-1.73-.92-2.82-.15-1.07-.3-2.18-.87-2.51-.56-.32-1.58.09-2.58.49-1.02.41-2.07.84-2.93.61-.82-.22-1.47-1.06-2.16-1.95-.67-.87-1.37-1.77-2.06-1.77s-1.39.9-2.06,1.76c-.69.89-1.34,1.73-2.16,1.95-.86.23-1.91-.2-2.93-.61-.99-.4-2.02-.82-2.58-.49-.57.33-.73,1.44-.87,2.51-.15,1.08-.3,2.2-.92,2.81s-1.73.77-2.82.92c-1.07.15-2.18.3-2.51.87-.32.56.09,1.58.49,2.58.41,1.02.84,2.07.61,2.93-.22.82-1.06,1.47-1.95,2.16-.87.67-1.76,1.37-1.76,2.06s.9,1.39,1.76,2.06c.89.69,1.73,1.34,1.95,2.16.23.86-.2,1.91-.61,2.93-.4.99-.82,2.02-.49,2.58.33.57,1.44.73,2.51.88,1.08.15,2.2.3,2.81.92.62.62.77,1.74.92,2.81.15,1.07.3,2.18.87,2.51.56.32,1.58-.09,2.58-.49.82-.33,1.67-.67,2.41-.67Z"/>
      </g>
      <path class="cls-1" d="M31.28,48.74c-.15,0-.29-.08-.35-.22l-5.76-11.6c-.1-.2-.02-.43.18-.53.2-.1.43-.02.53.18l5.31,10.71,1.37-4.51c.03-.1.1-.19.2-.24.1-.05.21-.05.31-.02l4.42,1.64-5.59-11.26c-.1-.2-.02-.43.18-.53.2-.1.43-.02.53.18l6.03,12.15c.07.14.05.32-.06.44-.11.12-.28.16-.43.11l-4.96-1.84-1.54,5.07c-.05.15-.18.27-.35.28-.01,0-.02,0-.03,0Z"/>
      <path class="cls-1" d="M20.65,35.52c-8.2,0-14.87-6.67-14.87-14.87s6.67-14.87,14.87-14.87,14.87,6.67,14.87,14.87-6.67,14.87-14.87,14.87ZM20.65,6.57c-7.77,0-14.08,6.32-14.08,14.08s6.32,14.08,14.08,14.08,14.08-6.32,14.08-14.08-6.32-14.08-14.08-14.08Z"/>
      <path class="cls-1" d="M8.95,22.96c-.19,0-.36-.14-.39-.33-.11-.65-.16-1.31-.16-1.98,0-3.27,1.27-6.35,3.59-8.66,2.31-2.31,5.39-3.59,8.66-3.59.22,0,.39.18.39.39s-.18.39-.39.39c-3.06,0-5.94,1.19-8.1,3.36-2.16,2.16-3.36,5.04-3.36,8.1,0,.62.05,1.24.15,1.85.03.22-.11.42-.33.45-.02,0-.04,0-.06,0Z"/>
      <path class="cls-1" d="M12.27,29.43c-.1,0-.2-.04-.28-.12-.8-.8-1.48-1.7-2.04-2.69-.11-.19-.04-.43.15-.54.19-.11.43-.04.54.15.52.92,1.16,1.77,1.9,2.52.15.15.15.4,0,.56-.08.08-.18.12-.28.12Z"/>
      <path class="cls-1" d="M15.17,28.75c-.08,0-.16-.03-.23-.08-.14-.1-.2-.28-.14-.44l2.01-6.17-5.25-3.82c-.14-.1-.2-.28-.14-.44.05-.16.2-.27.38-.27h6.49l2.01-6.17c.05-.16.2-.27.38-.27s.32.11.38.27l2.01,6.17h6.49c.17,0,.32.11.38.27.05.16,0,.34-.14.44l-5.25,3.82,2.01,6.17c.05.16,0,.34-.14.44-.14.1-.33.1-.46,0l-5.25-3.82-5.25,3.82c-.07.05-.15.08-.23.08ZM20.65,23.97c.08,0,.16.03.23.08l4.5,3.27-1.72-5.29c-.05-.16,0-.34.14-.44l4.5-3.27h-5.56c-.17,0-.32-.11-.38-.27l-1.72-5.29-1.72,5.29c-.05.16-.2.27-.38.27h-5.56l4.5,3.27c.14.1.2.28.14.44l-1.72,5.29,4.5-3.27c.07-.05.15-.08.23-.08Z"/>
    </g>
  </g>
</svg>