<?xml version="1.0" encoding="UTF-8"?>
<svg id="Layer_2" xmlns="http://www.w3.org/2000/svg" viewBox="0 0 53.85 51.45">
  <defs>
    <style>
      .cls-1 {
        fill: #010101;
        stroke: #000;
        stroke-miterlimit: 10;
        stroke-width: .25px;
      }
    </style>
  </defs>
  <g id="Home">
    <g id="_x31_93_x2C__Flower_x2C__Nature_x2C__Summer">
      <g>
        <path class="cls-1" d="M52.82,45.12c.5,0,.9.4.9.9s-.4.9-.9.9-.9-.4-.9-.9.4-.9.9-.9Z"/>
        <path class="cls-1" d="M50.32,12.02c.5,0,.9.4.9.9s-.4.9-.9.9-.9-.4-.9-.9.4-.9.9-.9Z"/>
        <path class="cls-1" d="M50.02,33.23c.5,0,.9.4.9.9s-.4.9-.9.9-.9-.4-.9-.9.4-.9.9-.9Z"/>
        <path class="cls-1" d="M19.72.12c.5,0,.9.4.9.9s-.4.9-.9.9-.9-.4-.9-.9.4-.9.9-.9Z"/>
        <path class="cls-1" d="M14.72,48.93c.5,0,.9.4.9.9s-.4.9-.9.9-.9-.4-.9-.9.4-.9.9-.9Z"/>
        <circle class="cls-1" cx="5.32" cy="16.62" r=".9"/>
        <circle class="cls-1" cx="1.02" cy="31.62" r=".9"/>
        <path class="cls-1" d="M26.92,51.33c-.3,0-.6-.3-.6-.6v-27.5c0-.3.3-.6.6-.6s.6.3.6.6v27.5c0,.3-.3.6-.6.6Z"/>
        <path class="cls-1" d="M6.32,45.12c-2.8,0-5-2.2-5-5s2.2-5,5-5,5,2.2,5,5-2.3,5-5,5ZM6.32,36.33c-2.1,0-3.8,1.7-3.8,3.8s1.7,3.8,3.8,3.8,3.8-1.7,3.8-3.8-1.8-3.8-3.8-3.8Z"/>
        <path class="cls-1" d="M43.82,47.62c-1.7,0-3.1-1.4-3.1-3.1s1.4-3.1,3.1-3.1,3.1,1.3,3.1,3.1c0,1.7-1.4,3.1-3.1,3.1ZM43.82,42.62c-1,0-1.9.8-1.9,1.9s.8,1.9,1.9,1.9,1.9-.8,1.9-1.9-.9-1.9-1.9-1.9Z"/>
        <path class="cls-1" d="M35.32,27.02c-.8,0-1.6-.2-2.2-.7-.3-.2-.4-.6-.2-.9.2-.3.6-.4.9-.2.5.3,1,.5,1.6.5,1.6,0,2.8-1.3,2.8-2.8v-10c0-1.5-1.1-2.7-2.6-2.8-.3,0-.6-.3-.6-.6s.3-.6.6-.6h0c2.1.2,3.7,1.9,3.7,4v10c.1,2.2-1.7,4.1-4,4.1Z"/>
        <path class="cls-1" d="M18.52,27.02c-2.2,0-4.1-1.8-4.1-4.1v-10c0-2.1,1.6-3.9,3.7-4,.4,0,.7.3.7.6s-.3.6-.6.6c-1.4.1-2.6,1.3-2.6,2.8v10c0,1.6,1.3,2.8,2.8,2.8.6,0,1.1-.2,1.6-.5.3-.2.7-.1.9.2.2.3.1.7-.2.9-.7.4-1.4.7-2.2.7Z"/>
        <path class="cls-1" d="M31.32,27.02s-.1-.1,0,0h-.1c-.3,0-1.3,0-2.4-.7-.3-.2-.4-.6-.2-.9.2-.3.6-.4.9-.2.8.5,1.6.5,1.8.5h.1c.6,0,1.3-.2,1.8-.5h0c1.2-.7,1.9-1.9,1.9-3.2v-12.4c-.3-1.8-1.9-3.2-3.7-3.2h-.2c-.4,0-.7-.3-.7-.6s.3-.6.6-.6h.2c2.5,0,4.6,1.8,5,4.3v12.6c0,1.8-1,3.5-2.5,4.3h0c-.8.3-1.7.6-2.5.6Z"/>
        <path class="cls-1" d="M22.52,27.02c-.9,0-1.7-.2-2.4-.6h0c-1.6-.9-2.5-2.6-2.5-4.3v-12.7c.1-1.1.7-2.1,1.4-2.8.9-.9,2.2-1.5,3.5-1.5h.2c.3,0,.6.3.6.6s-.3.6-.6.6h-.2c-1,0-1.9.4-2.7,1.1-.6.6-.9,1.3-1.1,2.1v12.4c0,1.3.7,2.6,1.9,3.2h0c.6.3,1.2.5,1.8.5h.1c.2,0,1,0,1.8-.5.3-.2.7-.1.9.2.2.3.1.7-.2.9-1.1.7-2.1.7-2.5.8h0c.1-.1,0,0,0,0Z"/>
        <path class="cls-1" d="M26.92,27.02c-.9,0-1.7-.2-2.5-.7-1.5-.9-2.5-2.6-2.5-4.3V7.02c0-.5.1-1,.2-1.4.6-2.1,2.6-3.6,4.8-3.6,1.3,0,2.6.5,3.5,1.5.6.6,1,1.3,1.3,2.1.1.5.2.9.2,1.4v15c0,1.8-1,3.4-2.5,4.3-.8.4-1.6.7-2.5.7ZM26.92,3.23c-1.6,0-3.1,1.1-3.6,2.7-.1.3-.2.7-.2,1.1v15c0,1.3.7,2.6,1.9,3.2.6.3,1.2.5,1.9.5s1.3-.2,1.9-.5c1.2-.7,1.9-1.9,1.9-3.2V7.02c0-.4-.1-.7-.2-1.1-.2-.6-.5-1.1-.9-1.6-.8-.7-1.7-1.1-2.7-1.1Z"/>
        <path class="cls-1" d="M25.02,19.52c-.3,0-.6-.3-.6-.6v-10.7c0-.3.3-.6.6-.6s.6.3.6.6v10.6c.1.4-.2.7-.6.7Z"/>
        <path class="cls-1" d="M41.32,7.62c-1.4,0-2.5-1.1-2.5-2.5s1.1-2.5,2.5-2.5,2.5,1.1,2.5,2.5-1.1,2.5-2.5,2.5ZM41.32,3.83c-.7,0-1.3.6-1.3,1.3s.6,1.3,1.3,1.3,1.3-.6,1.3-1.3c-.1-.7-.6-1.3-1.3-1.3Z"/>
        <path class="cls-1" d="M11.32,8.23c-1.4,0-2.5-1.1-2.5-2.5s1.1-2.5,2.5-2.5,2.5,1.1,2.5,2.5-1.1,2.5-2.5,2.5ZM11.32,4.52c-.7,0-1.3.6-1.3,1.3s.6,1.3,1.3,1.3,1.3-.6,1.3-1.3c-.1-.8-.6-1.3-1.3-1.3Z"/>
        <path class="cls-1" d="M26.92,45.52c-.2,0-.3-.1-.4-.2-.1-.1-.2-.4-.2-.6.9-4.7,3.1-8.9,6.5-12.3,3.4-3.4,7.6-5.6,12.3-6.5.2,0,.4,0,.6.2.1.1.2.4.2.6-.9,4.7-3.1,8.9-6.5,12.3-3.4,3.4-7.6,5.6-12.3,6.5h-.2ZM44.42,27.43c-8.2,1.9-14.8,8.5-16.7,16.7,8.2-1.9,14.8-8.5,16.7-16.7Z"/>
        <path class="cls-1" d="M26.92,45.52h-.1c-4.7-.9-8.9-3.1-12.3-6.5-3.4-3.4-5.6-7.6-6.5-12.3,0-.2,0-.4.2-.6.2-.2.4-.2.6-.2,4.7.9,8.9,3.1,12.3,6.5,3.3,3.4,5.6,7.6,6.5,12.2v.2c-.1.4-.4.7-.7.7h0ZM9.42,27.43c1.9,8.2,8.5,14.8,16.7,16.7-1.9-8.2-8.5-14.8-16.7-16.7Z"/>
        <path class="cls-1" d="M26.92,45.52c-.2,0-.3-.1-.4-.2l-7.7-7.7c-.2-.2-.2-.6,0-.9.2-.2.6-.2.9,0l7.3,7.3,10.7-10.7c.2-.2.6-.2.9,0,.2.2.2.6,0,.9l-11.3,11.1c-.1.1-.2.2-.4.2Z"/>
      </g>
    </g>
  </g>
</svg>