<?xml version="1.0" encoding="UTF-8"?>
<svg id="Layer_2" xmlns="http://www.w3.org/2000/svg" viewBox="0 0 38.58 38.58">
  <defs>
    <style>
      .cls-1 {
        fill: #006838;
      }

      .cls-2 {
        fill: #eae711;
      }
    </style>
  </defs>
  <g id="Our_Service">
    <g>
      <circle class="cls-2" cx="19.29" cy="19.29" r="19.29"/>
      <g>
        <path class="cls-1" d="M19.36,10.21c1.57.77,3.11,1.6,4.66,2.4.6.31,1.19.62,1.79.93.32.16.53.41.53.77,0,.37-.2.61-.52.78-2.06,1.07-4.12,2.15-6.18,3.22-.3.16-.59.16-.89,0-2.04-1.08-4.07-2.16-6.11-3.24-.4-.21-.58-.56-.48-.96.06-.26.24-.44.47-.56,1.46-.77,2.92-1.54,4.38-2.3.55-.29,1.1-.58,1.64-.86.12-.06.25-.12.38-.17.11,0,.21,0,.32,0Z"/>
        <path class="cls-1" d="M19.94,23.82c0-1.21,0-2.41,0-3.62,0-.42.16-.7.53-.9,1.88-1.01,3.75-2.04,5.62-3.05.45-.25.92-.15,1.17.24.09.14.13.3.13.47,0,2.42,0,4.83,0,7.25,0,.35-.16.61-.47.78-1.9,1.08-3.8,2.16-5.7,3.24-.61.35-1.26-.02-1.27-.72-.01-.49,0-.98,0-1.47,0-.74,0-1.48,0-2.22Z"/>
        <path class="cls-1" d="M18.64,23.82c0,1.21,0,2.42,0,3.63,0,.48-.24.8-.67.9-.23.05-.44-.02-.64-.13-.92-.52-1.83-1.04-2.75-1.57-.95-.54-1.9-1.09-2.86-1.62-.36-.2-.53-.48-.53-.9,0-2.37,0-4.74,0-7.11,0-.52.28-.85.75-.9.2-.02.37.04.54.14,1.73.94,3.46,1.88,5.19,2.82.15.08.3.17.45.24.36.18.52.47.52.87,0,1.21,0,2.42,0,3.63Z"/>
      </g>
    </g>
  </g>
</svg>