<?xml version="1.0" encoding="UTF-8"?>
<svg id="Layer_2" xmlns="http://www.w3.org/2000/svg" viewBox="0 0 38.58 38.58">
  <defs>
    <style>
      .cls-1 {
        fill: #006838;
      }

      .cls-2 {
        fill: #eae711;
      }
    </style>
  </defs>
  <g id="Our_Service">
    <g>
      <circle class="cls-2" cx="19.29" cy="19.29" r="19.29"/>
      <g>
        <path class="cls-1" d="M8.71,22.16c-.1-4.37,1.49-7.91,5.1-10.46.1-.07.2-.12.33-.2.25,2.23.49,4.42.74,6.61.06.51.48.88.95.84.51-.05.86-.46.81-.99-.11-1.07-.24-2.14-.35-3.2-.17-1.53-.35-3.07-.51-4.6-.06-.57.33-1,.91-1.01,1.74,0,3.48,0,5.21,0,.6,0,.99.45.92,1.05-.29,2.55-.57,5.09-.86,7.64-.08.75.46,1.27,1.12,1.07.37-.11.59-.38.63-.76.19-1.68.37-3.36.56-5.04.06-.53.12-1.05.18-1.61.58.33,1.09.72,1.56,1.15,2.16,1.97,3.39,4.42,3.78,7.3.1.72.11,1.45.09,2.17,0,.22-.08.27-.29.26-6.87,0-13.73,0-20.6,0-.17,0-.27-.01-.27-.22Z"/>
        <path class="cls-1" d="M30.32,26.79c-1.12,0-2.24,0-3.36,0h-7.67c-3.65,0-7.3,0-10.95,0-.83,0-1.43-.58-1.41-1.36.02-.67.56-1.24,1.24-1.28.06,0,.11,0,.17,0,7.3,0,14.6,0,21.9,0,.75,0,1.32.48,1.4,1.17.09.78-.51,1.47-1.32,1.48Z"/>
        <path class="cls-1" d="M29.87,22.12c0,.22-.08.27-.29.26-6.87,0-13.73,0-20.6,0-.17,0-.27-.01-.27-.22-.1-4.37,1.49-7.91,5.1-10.46.1-.07.2-.12.33-.2.25,2.23.49,4.42.74,6.61.06.51.48.88.95.84.51-.05.86-.46.81-.99-.11-1.07-.24-2.14-.35-3.2-.17-1.53-.35-3.07-.51-4.6-.06-.57.33-1,.91-1.01,1.74,0,3.48,0,5.21,0,.6,0,.99.45.92,1.05-.29,2.55-.57,5.09-.86,7.64-.08.75.46,1.27,1.12,1.07.37-.11.59-.38.63-.76.19-1.68.37-3.36.56-5.04.06-.53.12-1.05.18-1.61.58.33,1.09.72,1.56,1.15,2.16,1.97,3.39,4.42,3.78,7.3.1.72.11,1.45.09,2.17Z"/>
        <path class="cls-1" d="M30.32,26.79c-1.12,0-2.24,0-3.36,0h-7.67c-3.65,0-7.3,0-10.95,0-.83,0-1.43-.58-1.41-1.36.02-.67.56-1.24,1.24-1.28.06,0,.11,0,.17,0,7.3,0,14.6,0,21.9,0,.75,0,1.32.48,1.4,1.17.09.78-.51,1.47-1.32,1.48Z"/>
      </g>
    </g>
  </g>
</svg>