<?xml version="1.0" encoding="UTF-8"?>
<svg id="Layer_2" xmlns="http://www.w3.org/2000/svg" viewBox="0 0 38.58 38.58">
  <defs>
    <style>
      .cls-1 {
        fill: #006838;
      }

      .cls-2 {
        fill: #eae711;
      }
    </style>
  </defs>
  <g id="Our_Service">
    <g>
      <circle class="cls-2" cx="19.29" cy="19.29" r="19.29"/>
      <path class="cls-1" d="M17.48,15.88c0-.45,0-.9,0-1.36,0-.13-.04-.23-.13-.32-.71-.7-1.4-1.41-2.11-2.1-.28-.28-.41-.6-.27-.99.14-.38.44-.55.83-.6,2.78-.35,5.21,1.14,6.3,3.35.71,1.44.83,2.93.39,4.47-.05.17-.02.27.1.39,1.57,1.56,3.13,3.12,4.68,4.68.98.99,1.12,2.45.35,3.55-.99,1.41-2.96,1.57-4.21.33-1.37-1.36-2.73-2.73-4.1-4.1-.21-.21-.42-.41-.62-.63-.09-.09-.16-.12-.3-.08-2.9.87-5.95-.46-7.3-3.17-.56-1.14-.73-2.34-.56-3.6.05-.36.24-.63.59-.75.36-.12.67-.03.94.24.72.72,1.44,1.43,2.15,2.15.08.08.16.13.28.13.94,0,1.88,0,2.82,0,.15,0,.18-.05.17-.19,0-.47,0-.95,0-1.42Z"/>
    </g>
  </g>
</svg>