<?xml version="1.0" encoding="UTF-8"?>
<svg id="Layer_2" xmlns="http://www.w3.org/2000/svg" viewBox="0 0 66.45 66.45">
  <defs>
    <style>
      .cls-1 {
        fill: #006838;
      }

      .cls-2 {
        fill: #eae711;
      }
    </style>
  </defs>
  <g id="Contact">
    <g>
      <circle class="cls-1" cx="33.23" cy="33.23" r="33.23"/>
      <g>
        <path class="cls-2" d="M36.75,32.33c-.02,1.93-1.6,3.5-3.53,3.5s-3.53-1.58-3.51-3.54c0-1.93,1.58-3.5,3.53-3.5s3.51,1.58,3.51,3.54Z"/>
        <path class="cls-2" d="M44.86,25.35c-.58-2.84-2.92-4.75-5.82-4.77-1.93-.02-3.87,0-5.8,0h-5.74c-.41,0-.82,0-1.21.09-2.87.58-4.78,2.92-4.8,5.85v11.56c0,.39.02.78.09,1.18.6,2.86,2.93,4.77,5.85,4.77,3.86.02,7.72,0,11.58.02.49,0,.97-.05,1.44-.17,2.7-.66,4.5-2.96,4.5-5.79.02-3.86,0-7.7,0-11.56,0-.39-.02-.78-.09-1.18ZM33.04,38.18c-3.29-.16-5.85-2.89-5.69-6.09.16-3.26,2.89-5.8,6.05-5.66,3.28.16,5.82,2.89,5.68,6.07-.13,3.25-2.81,5.76-6.04,5.68ZM39.51,27.17c-.64,0-1.18-.53-1.18-1.18s.52-1.16,1.16-1.18c.66,0,1.18.53,1.18,1.18s-.52,1.18-1.16,1.18Z"/>
        <path class="cls-2" d="M36.75,32.33c-.02,1.93-1.6,3.5-3.53,3.5s-3.53-1.58-3.51-3.54c0-1.93,1.58-3.5,3.53-3.5s3.51,1.58,3.51,3.54Z"/>
        <path class="cls-2" d="M44.86,25.35c-.58-2.84-2.92-4.75-5.82-4.77-1.93-.02-3.87,0-5.8,0h-5.74c-.41,0-.82,0-1.21.09-2.87.58-4.78,2.92-4.8,5.85v11.56c0,.39.02.78.09,1.18.6,2.86,2.93,4.77,5.85,4.77,3.86.02,7.72,0,11.58.02.49,0,.97-.05,1.44-.17,2.7-.66,4.5-2.96,4.5-5.79.02-3.86,0-7.7,0-11.56,0-.39-.02-.78-.09-1.18ZM33.04,38.18c-3.29-.16-5.85-2.89-5.69-6.09.16-3.26,2.89-5.8,6.05-5.66,3.28.16,5.82,2.89,5.68,6.07-.13,3.25-2.81,5.76-6.04,5.68ZM39.51,27.17c-.64,0-1.18-.53-1.18-1.18s.52-1.16,1.16-1.18c.66,0,1.18.53,1.18,1.18s-.52,1.18-1.16,1.18Z"/>
        <path class="cls-2" d="M36.75,32.33c-.02,1.93-1.6,3.5-3.53,3.5s-3.53-1.58-3.51-3.54c0-1.93,1.58-3.5,3.53-3.5s3.51,1.58,3.51,3.54Z"/>
        <path class="cls-2" d="M36.75,32.33c-.02,1.93-1.6,3.5-3.53,3.5s-3.53-1.58-3.51-3.54c0-1.93,1.58-3.5,3.53-3.5s3.51,1.58,3.51,3.54Z"/>
      </g>
    </g>
  </g>
</svg>