<?xml version="1.0" encoding="UTF-8"?>
<svg id="Layer_2" xmlns="http://www.w3.org/2000/svg" viewBox="0 0 66.45 66.45">
  <defs>
    <style>
      .cls-1 {
        fill: #006838;
      }

      .cls-2 {
        fill: #eae711;
      }
    </style>
  </defs>
  <g id="Contact">
    <g>
      <circle class="cls-1" cx="33.23" cy="33.23" r="33.23"/>
      <g>
        <path class="cls-2" d="M33.23,22.6c3.07,0,6.14,0,9.21,0,1.61,0,2.86.68,3.63,2.13.27.5.41,1.04.42,1.61.01.5,0,1,.01,1.49,0,.17-.06.26-.2.34-4.09,2.49-8.19,4.99-12.27,7.49-.56.34-1.06.34-1.62,0-4.08-2.5-8.16-4.99-12.25-7.48-.16-.1-.24-.19-.23-.39.03-.73-.07-1.47.11-2.2.45-1.83,1.99-3,3.95-3,3.07,0,6.14,0,9.21,0Z"/>
        <path class="cls-2" d="M20,31.14c.54.33,1.08.67,1.63,1.01,3.09,1.91,6.17,3.85,9.28,5.73,1.52.92,3.14.92,4.66,0,3.57-2.16,7.1-4.38,10.65-6.58.08-.05.16-.09.24-.15.08.07.05.16.05.23,0,2.81,0,5.62,0,8.44,0,2.37-1.69,4.04-4.07,4.04-6.14,0-12.29,0-18.43,0-2.1,0-3.66-1.31-4.01-3.35-.04-.21-.04-.43-.04-.65,0-2.83,0-5.67,0-8.5,0-.07-.03-.14.05-.23Z"/>
      </g>
    </g>
  </g>
</svg>