<?xml version="1.0" encoding="UTF-8"?>
<svg id="Layer_2" xmlns="http://www.w3.org/2000/svg" viewBox="0 0 38.58 38.58">
  <defs>
    <style>
      .cls-1 {
        fill: #006838;
      }

      .cls-2 {
        fill: #eae711;
      }
    </style>
  </defs>
  <g id="Our_Service">
    <g>
      <circle class="cls-2" cx="19.29" cy="19.29" r="19.29"/>
      <path class="cls-1" d="M19.31,10.46c2.57,0,5.15,0,7.72,0,.71,0,1.08.37,1.08,1.07,0,3.69,0,7.38,0,11.07,0,.2-.06.34-.2.48-1.61,1.61-3.23,3.22-4.83,4.83-.14.14-.28.19-.47.19-3.7,0-7.39,0-11.09,0-.68,0-1.06-.38-1.06-1.06,0-5.18,0-10.36,0-15.54,0-.67.38-1.05,1.05-1.05,2.6,0,5.2,0,7.8,0Z"/>
    </g>
  </g>
</svg>