<?xml version="1.0" encoding="UTF-8"?>
<svg id="Layer_2" xmlns="http://www.w3.org/2000/svg" viewBox="0 0 66.45 66.45">
  <defs>
    <style>
      .cls-1 {
        fill: #006838;
      }

      .cls-2 {
        fill: #eae711;
      }
    </style>
  </defs>
  <g id="Contact">
    <g>
      <circle class="cls-1" cx="33.23" cy="33.23" r="33.23"/>
      <g>
        <path class="cls-2" d="M41.9,34.14c-.85,2.16-2.07,4.12-3.44,5.98-1.47,2.01-3.1,3.88-4.87,5.63-.27.27-.46.28-.7.04-2.55-2.54-4.85-5.28-6.71-8.37-1.02-1.69-1.86-3.46-2.29-5.41-.88-3.93.98-8.17,4.48-10.19,1.21-.7,2.51-1.13,3.91-1.27.03,0,.06,0,.08-.03-.06.15-.22.1-.34.12-.89.11-1.74.35-2.56.71-1.3.57-2.43,1.38-3.37,2.45-1.13,1.3-1.85,2.8-2.19,4.48-.31,1.58-.17,3.13.29,4.66.56,1.87,1.47,3.57,2.5,5.21,1.14,1.79,2.44,3.45,3.82,5.04.75.85,1.5,1.68,2.31,2.47.33.32.46.33.79,0,2.28-2.3,4.37-4.76,6.12-7.49,1.05-1.63,1.94-3.34,2.51-5.2.32-1.09.53-2.2.46-3.33-.13-2.2-.9-4.16-2.36-5.84-1.11-1.27-2.46-2.16-4.04-2.72-.67-.24-1.38-.38-2.08-.47-.08,0-.19.03-.21-.11.37.06.73.11,1.08.19,3.91.92,6.39,3.32,7.42,7.18.57,2.15.19,4.23-.61,6.27Z"/>
        <path class="cls-2" d="M42.51,27.87c-1.03-3.87-3.51-6.27-7.42-7.18-.35-.08-.71-.13-1.08-.19h-.15s-.05.03-.08.03h-.01s-.07,0-.1-.03h-.89s-.05.03-.08.03h-.02s-.07,0-.1-.03h-.2s0,.02-.01.03c-.02.03-.06.02-.08.03-1.39.14-2.69.57-3.91,1.27-3.5,2.02-5.36,6.25-4.48,10.19.43,1.95,1.27,3.72,2.29,5.41,1.86,3.09,4.16,5.84,6.71,8.37.24.24.43.23.7-.04,1.77-1.75,3.4-3.62,4.87-5.63,1.37-1.86,2.58-3.82,3.44-5.98.8-2.03,1.18-4.12.61-6.27ZM33.22,25.67c2.4,0,4.37,1.96,4.38,4.38,0,2.39-1.97,4.36-4.36,4.37-2.41,0-4.39-1.95-4.4-4.33-.01-2.45,1.93-4.41,4.38-4.42Z"/>
        <path class="cls-2" d="M32.67,20.53s-.08.01-.1-.04h.1s.02.02.02.03c0,0-.01.01-.02.01Z"/>
        <path class="cls-2" d="M32.67,20.53s0-.03,0-.04h.1s-.06.05-.1.04Z"/>
        <path class="cls-2" d="M33.77,20.53s-.08,0-.1-.04h.1s.02.02.02.03c0,.01,0,.02-.01.02Z"/>
        <path class="cls-2" d="M33.77,20.53s0-.03,0-.04h.1c-.01.06-.06.05-.1.04Z"/>
      </g>
    </g>
  </g>
</svg>