<?xml version="1.0" encoding="UTF-8"?>
<svg id="Layer_2" xmlns="http://www.w3.org/2000/svg" viewBox="0 0 38.58 38.58">
  <defs>
    <style>
      .cls-1 {
        fill: #006838;
      }

      .cls-2 {
        fill: #eae711;
      }
    </style>
  </defs>
  <g id="Our_Service">
    <circle class="cls-2" cx="19.29" cy="19.29" r="19.29"/>
    <g>
      <path class="cls-1" d="M9.72,18.2c-.2,0-.41,0-.61,0s-.39,0-.58,0c-.46-.02-.8-.36-.81-.8,0-.42.3-.77.76-.8.42-.03.86-.03,1.28,0,.46.03.77.38.76.8,0,.43-.34.77-.8.8Z"/>
      <path class="cls-1" d="M11.69,21.77c.23.38.12.85-.27,1.1-.35.22-.71.44-1.09.62-.56.28-1.18-.1-1.17-.72,0-.28.13-.51.37-.66.35-.22.71-.43,1.08-.62.4-.21.85-.08,1.07.28Z"/>
      <path class="cls-1" d="M9.2,11.76c.1-.32.41-.55.76-.55.1,0,.22.01.32.07.4.22.8.43,1.19.69.34.22.42.68.22,1.04-.2.35-.64.52-1.01.33-.41-.21-.82-.45-1.21-.7-.29-.19-.39-.56-.28-.88Z"/>
      <path class="cls-1" d="M23.19,28.17c-.24,1.52-1.46,2.64-3,2.73-.75.05-1.51.1-2.25-.06-1.56-.33-2.57-1.63-2.59-3.28,0-.53,0-1.07,0-1.61,0-.19.06-.24.25-.24,1.24,0,2.48,0,3.72,0s2.46,0,3.69,0c.18,0,.25.04.24.24-.03.74.06,1.49-.06,2.22Z"/>
      <path class="cls-1" d="M26.27,15.39c.39,2.43-.32,4.57-1.96,6.4-.16.18-.31.37-.49.54-.43.41-.63.91-.57,1.5.02.23-.05.29-.28.29-.87-.01-1.73-.01-2.61,0-.21,0-.28-.04-.28-.27.01-.82,0-1.64,0-2.46s0-1.64,0-2.46c0-.19.05-.26.24-.24.19.01.39,0,.59,0,.42-.03.74-.39.74-.8,0-.41-.33-.78-.76-.78-1.07,0-2.14,0-3.22,0-.42,0-.75.37-.75.79,0,.41.32.77.74.8.2.01.41.01.61,0,.17,0,.21.06.21.22,0,1.67,0,3.34,0,5,0,.15-.04.2-.19.2-.92,0-1.84,0-2.76,0-.14,0-.2-.04-.18-.18.11-.78-.28-1.33-.8-1.85-1.17-1.17-1.92-2.55-2.24-4.18-.77-3.97,2.03-7.87,6.04-8.36,3.84-.47,7.31,2.07,7.92,5.86Z"/>
      <path class="cls-1" d="M26.89,13.02c-.22-.38-.11-.85.28-1.09.35-.22.71-.44,1.09-.62.54-.27,1.16.1,1.16.7,0,.3-.13.54-.4.7-.34.2-.69.41-1.04.6-.42.22-.87.09-1.09-.28Z"/>
      <path class="cls-1" d="M29.42,22.78c0,.58-.59.98-1.13.72-.4-.19-.79-.42-1.16-.67-.36-.23-.45-.69-.24-1.06.21-.36.66-.51,1.04-.31.4.2.78.44,1.16.67.23.14.32.37.33.64Z"/>
      <path class="cls-1" d="M30.86,17.43c-.01.42-.34.74-.8.77-.2,0-.41,0-.61,0s-.39,0-.59,0c-.46-.02-.8-.36-.8-.8,0-.42.31-.78.77-.8.42-.03.86-.03,1.28,0,.47.03.77.39.75.83Z"/>
      <path class="cls-1" d="M24.31,21.79c-.16.18-.31.37-.49.54-.43.41-.63.91-.57,1.5.02.23-.05.29-.28.29-.87-.01-1.73-.01-2.61,0-.21,0-.28-.04-.28-.27.01-.82,0-1.64,0-2.46s0-1.64,0-2.46c0-.19.05-.26.24-.24.19.01.39,0,.59,0,.42-.03.74-.39.74-.8,0-.41-.33-.78-.76-.78-1.07,0-2.14,0-3.22,0-.42,0-.75.37-.75.79,0,.41.32.77.74.8.2.01.41.01.61,0,.17,0,.21.06.21.22,0,1.67,0,3.34,0,5,0,.15-.04.2-.19.2-.92,0-1.84,0-2.76,0-.14,0-.2-.04-.18-.18.11-.78-.28-1.33-.8-1.85-1.17-1.17-1.92-2.55-2.24-4.18-.77-3.97,2.03-7.87,6.04-8.36,3.84-.47,7.31,2.07,7.92,5.86.39,2.43-.32,4.57-1.96,6.4Z"/>
      <path class="cls-1" d="M23.19,28.17c-.24,1.52-1.46,2.64-3,2.73-.75.05-1.51.1-2.25-.06-1.56-.33-2.57-1.63-2.59-3.28,0-.53,0-1.07,0-1.61,0-.19.06-.24.25-.24,1.24,0,2.48,0,3.72,0s2.46,0,3.69,0c.18,0,.25.04.24.24-.03.74.06,1.49-.06,2.22Z"/>
      <path class="cls-1" d="M10.52,17.4c0,.43-.34.77-.8.8-.2,0-.41,0-.61,0s-.39,0-.58,0c-.46-.02-.8-.36-.81-.8,0-.42.3-.77.76-.8.42-.03.86-.03,1.28,0,.46.03.77.38.76.8Z"/>
      <path class="cls-1" d="M30.86,17.43c-.01.42-.34.74-.8.77-.2,0-.41,0-.61,0s-.39,0-.59,0c-.46-.02-.8-.36-.8-.8,0-.42.31-.78.77-.8.42-.03.86-.03,1.28,0,.47.03.77.39.75.83Z"/>
      <path class="cls-1" d="M11.42,22.86c-.35.22-.71.44-1.09.62-.56.28-1.18-.1-1.17-.72,0-.28.13-.51.37-.66.35-.22.71-.43,1.08-.62.4-.21.85-.08,1.07.28.23.38.12.85-.27,1.1Z"/>
      <path class="cls-1" d="M29.42,22.78c0,.58-.59.98-1.13.72-.4-.19-.79-.42-1.16-.67-.36-.23-.45-.69-.24-1.06.21-.36.66-.51,1.04-.31.4.2.78.44,1.16.67.23.14.32.37.33.64Z"/>
      <path class="cls-1" d="M11.7,13.01c-.2.35-.64.52-1.01.33-.41-.21-.82-.45-1.21-.7-.29-.19-.39-.56-.28-.88s.41-.55.76-.55c.1,0,.22.01.32.07.4.22.8.43,1.19.69.34.22.42.68.22,1.04Z"/>
      <path class="cls-1" d="M29.42,12.01c0,.3-.13.54-.4.7-.34.2-.69.41-1.04.6-.42.22-.87.09-1.09-.28-.22-.38-.11-.85.28-1.09.35-.22.71-.44,1.09-.62.54-.27,1.16.1,1.16.7Z"/>
    </g>
  </g>
</svg>