<?xml version="1.0" encoding="UTF-8"?>
<svg id="Layer_2" xmlns="http://www.w3.org/2000/svg" viewBox="0 0 38.58 38.58">
  <defs>
    <style>
      .cls-1 {
        fill: #006838;
      }

      .cls-2 {
        fill: #eae711;
      }
    </style>
  </defs>
  <g id="Our_Service">
    <g>
      <circle class="cls-2" cx="19.29" cy="19.29" r="19.29"/>
      <g>
        <path class="cls-1" d="M27.57,16.16c1.22,3.28.39,7.72-3.19,10.39-3.51,2.61-8.33,2.39-11.6-.52-3.22-2.87-4.02-7.66-1.9-11.35,2.21-3.86,6.67-5.6,10.91-4.23-.24.25-.46.47-.69.69-.54.51-.79,1.14-.78,1.87.01.39,0,.76.01,1.15,0,.13-.01.19-.18.15-2.93-.74-5.81,1.18-6.24,4.16-.41,2.71,1.53,5.31,4.24,5.7,2.77.39,5.3-1.48,5.73-4.24.11-.69.06-1.38-.13-2.06-.04-.16,0-.18.14-.18.46,0,.91.01,1.36-.01.58-.02,1.08-.25,1.5-.64.27-.27.52-.56.81-.86Z"/>
        <path class="cls-1" d="M28.65,12.86c-.99,1-1.98,1.98-2.97,2.98-.17.16-.36.24-.6.24h-.92c-.3,0-.6.01-.9-.01-.14,0-.24.05-.33.15-.56.58-1.11,1.15-1.68,1.7-.1.11-.13.18-.06.32.55,1.33-.13,2.82-1.49,3.28-1.35.46-2.81-.32-3.19-1.7-.38-1.36.49-2.77,1.87-3.07.49-.11.97-.06,1.44.14.13.05.19.03.28-.06.57-.58,1.15-1.17,1.72-1.75.09-.09.12-.17.12-.29-.01-.6,0-1.2-.01-1.8,0-.27.1-.5.3-.7.95-.95,1.9-1.9,2.85-2.85.26-.26.55-.37.89-.26.35.12.51.39.55.75.03.44.07.87.1,1.31,0,.14.05.17.17.18.45.02.89.06,1.34.1.33.02.58.18.71.49.13.32.06.61-.17.86Z"/>
        <path class="cls-1" d="M24.37,26.55c-3.51,2.61-8.33,2.39-11.6-.52-3.22-2.87-4.02-7.66-1.9-11.35,2.21-3.86,6.67-5.6,10.91-4.23-.24.25-.46.47-.69.69-.54.51-.79,1.14-.78,1.87.01.39,0,.76.01,1.15,0,.13-.01.19-.18.15-2.93-.74-5.81,1.18-6.24,4.16-.41,2.71,1.53,5.31,4.24,5.7,2.77.39,5.3-1.48,5.73-4.24.11-.69.06-1.38-.13-2.06-.04-.16,0-.18.14-.18.46,0,.91.01,1.36-.01.58-.02,1.08-.25,1.5-.64.27-.27.52-.56.81-.86,1.22,3.28.39,7.72-3.19,10.39Z"/>
        <path class="cls-1" d="M28.65,12.86c-.99,1-1.98,1.98-2.97,2.98-.17.16-.36.24-.6.24h-.92c-.3,0-.6.01-.9-.01-.14,0-.24.05-.33.15-.56.58-1.11,1.15-1.68,1.7-.1.11-.13.18-.06.32.55,1.33-.13,2.82-1.49,3.28-1.35.46-2.81-.32-3.19-1.7-.38-1.36.49-2.77,1.87-3.07.49-.11.97-.06,1.44.14.13.05.19.03.28-.06.57-.58,1.15-1.17,1.72-1.75.09-.09.12-.17.12-.29-.01-.6,0-1.2-.01-1.8,0-.27.1-.5.3-.7.95-.95,1.9-1.9,2.85-2.85.26-.26.55-.37.89-.26.35.12.51.39.55.75.03.44.07.87.1,1.31,0,.14.05.17.17.18.45.02.89.06,1.34.1.33.02.58.18.71.49.13.32.06.61-.17.86Z"/>
      </g>
    </g>
  </g>
</svg>